<?xml version="1.0" standalone="no"?>
<!DOCTYPE svg PUBLIC "-//W3C//DTD SVG 20010904//EN"
 "http://www.w3.org/TR/2001/REC-SVG-20010904/DTD/svg10.dtd">
<svg version="1.0" xmlns="http://www.w3.org/2000/svg"
 width="434.000000pt" height="434.000000pt" viewBox="0 0 434.000000 434.000000"
 preserveAspectRatio="xMidYMid meet">

<g transform="translate(0.000000,434.000000) scale(0.100000,-0.100000)"
fill="#000000" stroke="none">
<path d="M2689 2446 c-91 -68 -149 -171 -149 -269 0 -100 63 -154 169 -144 72
6 151 42 151 68 0 10 -4 19 -10 19 -5 0 -10 9 -10 20 0 25 -12 25 -77 -2 -43
-17 -60 -20 -90 -12 l-38 9 0 57 c0 47 6 64 30 99 40 56 55 60 55 15 0 -34 2
-36 33 -36 51 0 57 10 63 96 7 88 3 97 -51 108 -24 5 -39 -1 -76 -28z"/>
<path d="M3474 2452 c-95 -69 -158 -177 -159 -273 0 -101 69 -158 179 -146 95
10 183 71 131 91 -8 3 -15 13 -15 22 0 17 -5 17 -75 -10 -87 -33 -139 -8 -128
61 7 45 28 89 56 121 28 31 39 28 35 -10 -3 -32 -2 -33 35 -33 21 0 42 2 46 5
4 3 11 42 14 88 l6 83 -34 15 c-45 19 -46 18 -91 -14z"/>
<path d="M3823 2404 l-58 -73 -3 58 -3 58 -42 6 c-27 4 -44 2 -49 -6 -4 -7 -8
-98 -8 -203 0 -163 2 -194 16 -205 12 -10 20 -10 34 -1 11 6 26 9 34 6 12 -5
16 7 18 68 2 43 7 71 13 69 6 -2 25 -39 44 -82 36 -83 36 -83 99 -63 19 6 15
28 -28 126 -46 108 -48 124 -17 158 12 14 34 41 49 61 24 32 26 40 15 62 -24
51 -51 41 -114 -39z"/>
<path d="M2223 2462 c-23 -3 -30 -28 -36 -132 l-2 -45 -58 89 c-56 85 -59 88
-89 82 -17 -3 -35 -6 -41 -6 -7 0 -8 -66 -3 -202 4 -112 8 -203 9 -205 1 -1
21 1 45 4 l42 6 0 88 c0 49 3 89 8 89 4 -1 36 -43 72 -95 53 -77 69 -93 85
-88 11 3 21 6 21 7 1 0 4 92 8 202 l7 202 -23 3 c-13 3 -33 3 -45 1z"/>
<path d="M2935 2460 c-3 -5 -15 -10 -26 -10 -18 0 -19 -9 -19 -192 1 -188 1
-193 23 -209 21 -15 30 -15 112 -2 50 9 91 16 93 18 1 1 0 21 -4 45 l-7 42
-61 -4 -61 -3 0 150 c0 83 -4 156 -8 163 -10 15 -33 16 -42 2z"/>
<path d="M3177 2464 c-4 -4 -7 -102 -7 -217 0 -174 2 -208 14 -204 7 3 18 1
24 -5 5 -5 19 -7 31 -3 20 6 21 12 21 216 l0 209 -24 0 c-13 0 -31 2 -38 5 -8
3 -17 2 -21 -1z"/>
<path d="M1705 2441 c-126 -57 -192 -235 -125 -334 54 -80 142 -94 242 -40 77
42 118 117 118 216 0 80 -51 164 -93 153 -9 -2 -24 2 -31 10 -20 19 -63 17
-111 -5z m112 -86 c77 -54 4 -225 -96 -225 -111 0 -108 154 4 217 47 27 63 28
92 8z"/>
<path d="M1614 1786 c-3 -7 -4 -42 -2 -77 3 -57 5 -64 24 -67 25 -4 38 32 28
73 -10 41 -19 28 -15 -21 2 -36 0 -45 -10 -42 -17 6 -21 125 -5 135 5 4 12 1
14 -5 2 -7 8 -12 13 -12 4 0 6 7 3 15 -8 19 -43 20 -50 1z"/>
<path d="M1720 1720 c0 -44 4 -80 8 -80 4 0 6 17 4 37 -3 27 0 40 14 50 16 12
16 13 1 13 -10 0 -17 8 -17 20 0 11 7 20 15 20 8 0 15 5 15 10 0 6 -9 10 -20
10 -18 0 -20 -7 -20 -80z"/>
<path d="M1843 1789 c11 -7 23 -7 35 0 14 9 11 10 -18 10 -29 0 -32 -1 -17
-10z"/>
<path d="M3337 1793 c-4 -3 -6 -40 -6 -82 1 -42 3 -69 4 -61 2 8 7 33 11 55
l7 40 11 -49 c6 -27 17 -51 24 -54 9 -3 12 17 10 80 l-1 83 -6 -65 c-6 -68
-15 -64 -26 14 -7 44 -14 54 -28 39z"/>
<path d="M3472 1786 c12 -9 18 -31 21 -82 l3 -69 2 69 c2 52 6 72 20 82 15 12
12 13 -23 13 -35 0 -38 -1 -23 -13z"/>
<path d="M2075 1745 l-8 -50 -13 35 -13 35 6 -40 c11 -72 19 -84 27 -40 6 28
10 35 17 24 5 -8 9 -24 9 -36 0 -13 4 -23 9 -23 9 0 24 101 16 109 -3 2 -5 -5
-5 -17 0 -29 -20 -39 -21 -10 0 13 -4 32 -8 43 -6 15 -10 9 -16 -30z"/>
<path d="M3101 1755 c-12 -35 -15 -37 -23 -20 -6 14 -7 11 -3 -14 3 -18 5 -44
5 -58 0 -33 16 -21 25 19 l7 33 12 -40 c12 -36 13 -37 19 -15 11 39 8 70 -5
68 -7 -2 -15 12 -18 32 l-6 35 -13 -40z"/>
<path d="M3152 1765 c0 -16 2 -22 5 -12 2 9 2 23 0 30 -3 6 -5 -1 -5 -18z"/>
<path d="M3221 1763 c2 -27 2 -27 6 -3 l5 25 14 -30 c8 -17 12 -22 9 -12 -3
10 -5 25 -5 33 0 8 -7 14 -15 14 -10 0 -15 -9 -14 -27z"/>
<path d="M2861 1714 c0 -11 3 -14 6 -6 3 7 2 16 -1 19 -3 4 -6 -2 -5 -13z"/>
<path d="M3210 1705 c0 -11 -3 -31 -6 -45 -4 -18 0 -15 11 9 10 24 12 38 5 45
-7 7 -10 4 -10 -9z"/>
<path d="M3245 1711 c-3 -5 -1 -12 5 -16 5 -3 10 1 10 9 0 18 -6 21 -15 7z"/>
<path d="M3262 1660 c0 -14 2 -19 5 -12 2 6 2 18 0 25 -3 6 -5 1 -5 -13z"/>
</g>
</svg>
